<mxfile host="app.diagrams.net" modified="2022-08-27T16:21:17.905Z" agent="5.0 (Windows NT 10.0; Win64; x64) AppleWebKit/537.36 (KHTML, like Gecko) Chrome/104.0.0.0 Safari/537.36" etag="zW6-gsMSIxws6DZlapaM" version="20.2.7" type="github">
  <diagram id="uotSILnn2XqaB6oI9mt4" name="Page-1">
    <mxGraphModel dx="1865" dy="579" grid="1" gridSize="10" guides="1" tooltips="1" connect="1" arrows="1" fold="1" page="1" pageScale="1" pageWidth="827" pageHeight="1169" math="0" shadow="0">
      <root>
        <mxCell id="0" />
        <mxCell id="1" parent="0" />
        <mxCell id="g8Bvd32QQFG1Y6l2gwTf-1" value="Table" style="shape=table;startSize=30;container=1;collapsible=1;childLayout=tableLayout;fixedRows=1;rowLines=0;fontStyle=1;align=center;resizeLast=1;" vertex="1" parent="1">
          <mxGeometry x="-60" y="220" width="180" height="190" as="geometry" />
        </mxCell>
        <mxCell id="g8Bvd32QQFG1Y6l2gwTf-2" value="" style="shape=tableRow;horizontal=0;startSize=0;swimlaneHead=0;swimlaneBody=0;fillColor=none;collapsible=0;dropTarget=0;points=[[0,0.5],[1,0.5]];portConstraint=eastwest;top=0;left=0;right=0;bottom=1;" vertex="1" parent="g8Bvd32QQFG1Y6l2gwTf-1">
          <mxGeometry y="30" width="180" height="30" as="geometry" />
        </mxCell>
        <mxCell id="g8Bvd32QQFG1Y6l2gwTf-3" value="PK" style="shape=partialRectangle;connectable=0;fillColor=none;top=0;left=0;bottom=0;right=0;fontStyle=1;overflow=hidden;" vertex="1" parent="g8Bvd32QQFG1Y6l2gwTf-2">
          <mxGeometry width="30" height="30" as="geometry">
            <mxRectangle width="30" height="30" as="alternateBounds" />
          </mxGeometry>
        </mxCell>
        <mxCell id="g8Bvd32QQFG1Y6l2gwTf-4" value="UniqueID" style="shape=partialRectangle;connectable=0;fillColor=none;top=0;left=0;bottom=0;right=0;align=left;spacingLeft=6;fontStyle=5;overflow=hidden;" vertex="1" parent="g8Bvd32QQFG1Y6l2gwTf-2">
          <mxGeometry x="30" width="150" height="30" as="geometry">
            <mxRectangle width="150" height="30" as="alternateBounds" />
          </mxGeometry>
        </mxCell>
        <mxCell id="g8Bvd32QQFG1Y6l2gwTf-5" value="" style="shape=tableRow;horizontal=0;startSize=0;swimlaneHead=0;swimlaneBody=0;fillColor=none;collapsible=0;dropTarget=0;points=[[0,0.5],[1,0.5]];portConstraint=eastwest;top=0;left=0;right=0;bottom=0;" vertex="1" parent="g8Bvd32QQFG1Y6l2gwTf-1">
          <mxGeometry y="60" width="180" height="30" as="geometry" />
        </mxCell>
        <mxCell id="g8Bvd32QQFG1Y6l2gwTf-6" value="" style="shape=partialRectangle;connectable=0;fillColor=none;top=0;left=0;bottom=0;right=0;editable=1;overflow=hidden;" vertex="1" parent="g8Bvd32QQFG1Y6l2gwTf-5">
          <mxGeometry width="30" height="30" as="geometry">
            <mxRectangle width="30" height="30" as="alternateBounds" />
          </mxGeometry>
        </mxCell>
        <mxCell id="g8Bvd32QQFG1Y6l2gwTf-7" value="Row 1" style="shape=partialRectangle;connectable=0;fillColor=none;top=0;left=0;bottom=0;right=0;align=left;spacingLeft=6;overflow=hidden;" vertex="1" parent="g8Bvd32QQFG1Y6l2gwTf-5">
          <mxGeometry x="30" width="150" height="30" as="geometry">
            <mxRectangle width="150" height="30" as="alternateBounds" />
          </mxGeometry>
        </mxCell>
        <mxCell id="g8Bvd32QQFG1Y6l2gwTf-8" value="" style="shape=tableRow;horizontal=0;startSize=0;swimlaneHead=0;swimlaneBody=0;fillColor=none;collapsible=0;dropTarget=0;points=[[0,0.5],[1,0.5]];portConstraint=eastwest;top=0;left=0;right=0;bottom=0;" vertex="1" parent="g8Bvd32QQFG1Y6l2gwTf-1">
          <mxGeometry y="90" width="180" height="30" as="geometry" />
        </mxCell>
        <mxCell id="g8Bvd32QQFG1Y6l2gwTf-9" value="" style="shape=partialRectangle;connectable=0;fillColor=none;top=0;left=0;bottom=0;right=0;editable=1;overflow=hidden;" vertex="1" parent="g8Bvd32QQFG1Y6l2gwTf-8">
          <mxGeometry width="30" height="30" as="geometry">
            <mxRectangle width="30" height="30" as="alternateBounds" />
          </mxGeometry>
        </mxCell>
        <mxCell id="g8Bvd32QQFG1Y6l2gwTf-10" value="Row 2" style="shape=partialRectangle;connectable=0;fillColor=none;top=0;left=0;bottom=0;right=0;align=left;spacingLeft=6;overflow=hidden;" vertex="1" parent="g8Bvd32QQFG1Y6l2gwTf-8">
          <mxGeometry x="30" width="150" height="30" as="geometry">
            <mxRectangle width="150" height="30" as="alternateBounds" />
          </mxGeometry>
        </mxCell>
        <mxCell id="g8Bvd32QQFG1Y6l2gwTf-11" value="" style="shape=tableRow;horizontal=0;startSize=0;swimlaneHead=0;swimlaneBody=0;fillColor=none;collapsible=0;dropTarget=0;points=[[0,0.5],[1,0.5]];portConstraint=eastwest;top=0;left=0;right=0;bottom=0;" vertex="1" parent="g8Bvd32QQFG1Y6l2gwTf-1">
          <mxGeometry y="120" width="180" height="30" as="geometry" />
        </mxCell>
        <mxCell id="g8Bvd32QQFG1Y6l2gwTf-12" value="" style="shape=partialRectangle;connectable=0;fillColor=none;top=0;left=0;bottom=0;right=0;editable=1;overflow=hidden;" vertex="1" parent="g8Bvd32QQFG1Y6l2gwTf-11">
          <mxGeometry width="30" height="30" as="geometry">
            <mxRectangle width="30" height="30" as="alternateBounds" />
          </mxGeometry>
        </mxCell>
        <mxCell id="g8Bvd32QQFG1Y6l2gwTf-13" value="Row 3" style="shape=partialRectangle;connectable=0;fillColor=none;top=0;left=0;bottom=0;right=0;align=left;spacingLeft=6;overflow=hidden;" vertex="1" parent="g8Bvd32QQFG1Y6l2gwTf-11">
          <mxGeometry x="30" width="150" height="30" as="geometry">
            <mxRectangle width="150" height="30" as="alternateBounds" />
          </mxGeometry>
        </mxCell>
        <mxCell id="g8Bvd32QQFG1Y6l2gwTf-14" value="" style="shape=tableRow;horizontal=0;startSize=0;swimlaneHead=0;swimlaneBody=0;fillColor=none;collapsible=0;dropTarget=0;points=[[0,0.5],[1,0.5]];portConstraint=eastwest;top=0;left=0;right=0;bottom=1;" vertex="1" parent="g8Bvd32QQFG1Y6l2gwTf-1">
          <mxGeometry y="150" width="180" height="30" as="geometry" />
        </mxCell>
        <mxCell id="g8Bvd32QQFG1Y6l2gwTf-15" value="FK" style="shape=partialRectangle;connectable=0;fillColor=none;top=0;left=0;bottom=0;right=0;fontStyle=1;overflow=hidden;" vertex="1" parent="g8Bvd32QQFG1Y6l2gwTf-14">
          <mxGeometry width="30" height="30" as="geometry">
            <mxRectangle width="30" height="30" as="alternateBounds" />
          </mxGeometry>
        </mxCell>
        <mxCell id="g8Bvd32QQFG1Y6l2gwTf-16" value="UniqueID" style="shape=partialRectangle;connectable=0;fillColor=none;top=0;left=0;bottom=0;right=0;align=left;spacingLeft=6;fontStyle=5;overflow=hidden;" vertex="1" parent="g8Bvd32QQFG1Y6l2gwTf-14">
          <mxGeometry x="30" width="150" height="30" as="geometry">
            <mxRectangle width="150" height="30" as="alternateBounds" />
          </mxGeometry>
        </mxCell>
        <mxCell id="g8Bvd32QQFG1Y6l2gwTf-17" value="&lt;code style=&quot;font-size: 20px; font-style: italic; font-weight: 700; box-sizing: border-box; font-family: source-code-pro, Menlo, Monaco, Consolas, &amp;quot;Courier New&amp;quot;, monospace; margin: 0px 2px; padding: 0.15rem 0.3rem; border: 1px solid rgb(234, 234, 234); background-color: rgba(27, 31, 35, 0.05); border-radius: 0.3rem; text-align: start;&quot;&gt;description&lt;/code&gt;&lt;span style=&quot;font-size: 20px; font-style: italic; font-weight: 700; color: rgb(51, 51, 51); font-family: -apple-system, BlinkMacSystemFont, &amp;quot;Segoe UI&amp;quot;, Roboto, Oxygen, Ubuntu, Cantarell, &amp;quot;Fira Sans&amp;quot;, &amp;quot;Droid Sans&amp;quot;, &amp;quot;Helvetica Neue&amp;quot;, sans-serif; text-align: start; background-color: rgb(255, 255, 255);&quot;&gt;,&amp;nbsp;&lt;/span&gt;&lt;code style=&quot;font-size: 20px; font-style: italic; font-weight: 700; box-sizing: border-box; font-family: source-code-pro, Menlo, Monaco, Consolas, &amp;quot;Courier New&amp;quot;, monospace; margin: 0px 2px; padding: 0.15rem 0.3rem; border: 1px solid rgb(234, 234, 234); background-color: rgba(27, 31, 35, 0.05); border-radius: 0.3rem; text-align: start;&quot;&gt;has_life&lt;/code&gt;&lt;span style=&quot;font-size: 20px; font-style: italic; font-weight: 700; color: rgb(51, 51, 51); font-family: -apple-system, BlinkMacSystemFont, &amp;quot;Segoe UI&amp;quot;, Roboto, Oxygen, Ubuntu, Cantarell, &amp;quot;Fira Sans&amp;quot;, &amp;quot;Droid Sans&amp;quot;, &amp;quot;Helvetica Neue&amp;quot;, sans-serif; text-align: start; background-color: rgb(255, 255, 255);&quot;&gt;,&amp;nbsp;&lt;/span&gt;&lt;code style=&quot;font-size: 20px; font-style: italic; font-weight: 700; box-sizing: border-box; font-family: source-code-pro, Menlo, Monaco, Consolas, &amp;quot;Courier New&amp;quot;, monospace; margin: 0px 2px; padding: 0.15rem 0.3rem; border: 1px solid rgb(234, 234, 234); background-color: rgba(27, 31, 35, 0.05); border-radius: 0.3rem; text-align: start;&quot;&gt;is_spherical&lt;/code&gt;&lt;span style=&quot;font-size: 20px; font-style: italic; font-weight: 700; color: rgb(51, 51, 51); font-family: -apple-system, BlinkMacSystemFont, &amp;quot;Segoe UI&amp;quot;, Roboto, Oxygen, Ubuntu, Cantarell, &amp;quot;Fira Sans&amp;quot;, &amp;quot;Droid Sans&amp;quot;, &amp;quot;Helvetica Neue&amp;quot;, sans-serif; text-align: start; background-color: rgb(255, 255, 255);&quot;&gt;,&amp;nbsp;&lt;/span&gt;&lt;code style=&quot;font-size: 20px; font-style: italic; font-weight: 700; box-sizing: border-box; font-family: source-code-pro, Menlo, Monaco, Consolas, &amp;quot;Courier New&amp;quot;, monospace; margin: 0px 2px; padding: 0.15rem 0.3rem; border: 1px solid rgb(234, 234, 234); background-color: rgba(27, 31, 35, 0.05); border-radius: 0.3rem; text-align: start;&quot;&gt;age_in_millions_of_years&lt;/code&gt;&lt;span style=&quot;font-size: 20px; font-style: italic; font-weight: 700; color: rgb(51, 51, 51); font-family: -apple-system, BlinkMacSystemFont, &amp;quot;Segoe UI&amp;quot;, Roboto, Oxygen, Ubuntu, Cantarell, &amp;quot;Fira Sans&amp;quot;, &amp;quot;Droid Sans&amp;quot;, &amp;quot;Helvetica Neue&amp;quot;, sans-serif; text-align: start; background-color: rgb(255, 255, 255);&quot;&gt;,&amp;nbsp;&lt;/span&gt;&lt;code style=&quot;font-size: 20px; font-style: italic; font-weight: 700; box-sizing: border-box; font-family: source-code-pro, Menlo, Monaco, Consolas, &amp;quot;Courier New&amp;quot;, monospace; margin: 0px 2px; padding: 0.15rem 0.3rem; border: 1px solid rgb(234, 234, 234); background-color: rgba(27, 31, 35, 0.05); border-radius: 0.3rem; text-align: start;&quot;&gt;planet_types&lt;/code&gt;&lt;span style=&quot;font-size: 20px; font-style: italic; font-weight: 700; color: rgb(51, 51, 51); font-family: -apple-system, BlinkMacSystemFont, &amp;quot;Segoe UI&amp;quot;, Roboto, Oxygen, Ubuntu, Cantarell, &amp;quot;Fira Sans&amp;quot;, &amp;quot;Droid Sans&amp;quot;, &amp;quot;Helvetica Neue&amp;quot;, sans-serif; text-align: start; background-color: rgb(255, 255, 255);&quot;&gt;,&amp;nbsp;&lt;/span&gt;&lt;code style=&quot;font-size: 20px; font-style: italic; font-weight: 700; box-sizing: border-box; font-family: source-code-pro, Menlo, Monaco, Consolas, &amp;quot;Courier New&amp;quot;, monospace; margin: 0px 2px; padding: 0.15rem 0.3rem; border: 1px solid rgb(234, 234, 234); background-color: rgba(27, 31, 35, 0.05); border-radius: 0.3rem; text-align: start;&quot;&gt;galaxy_types&lt;/code&gt;&lt;span style=&quot;font-size: 20px; font-style: italic; font-weight: 700; color: rgb(51, 51, 51); font-family: -apple-system, BlinkMacSystemFont, &amp;quot;Segoe UI&amp;quot;, Roboto, Oxygen, Ubuntu, Cantarell, &amp;quot;Fira Sans&amp;quot;, &amp;quot;Droid Sans&amp;quot;, &amp;quot;Helvetica Neue&amp;quot;, sans-serif; text-align: start; background-color: rgb(255, 255, 255);&quot;&gt;,&amp;nbsp;&lt;/span&gt;&lt;code style=&quot;font-size: 20px; font-style: italic; font-weight: 700; box-sizing: border-box; font-family: source-code-pro, Menlo, Monaco, Consolas, &amp;quot;Courier New&amp;quot;, monospace; margin: 0px 2px; padding: 0.15rem 0.3rem; border: 1px solid rgb(234, 234, 234); background-color: rgba(27, 31, 35, 0.05); border-radius: 0.3rem; text-align: start;&quot;&gt;distance_from_earth&lt;/code&gt;" style="text;html=1;align=center;verticalAlign=middle;resizable=0;points=[];autosize=1;strokeColor=none;fillColor=none;" vertex="1" parent="1">
          <mxGeometry x="-420" y="30" width="1280" height="40" as="geometry" />
        </mxCell>
        <mxCell id="g8Bvd32QQFG1Y6l2gwTf-18" value="&lt;b style=&quot;font-size: 18px;&quot;&gt;&lt;i&gt;&lt;u&gt;&lt;code style=&quot;box-sizing: border-box; font-family: source-code-pro, Menlo, Monaco, Consolas, &amp;quot;Courier New&amp;quot;, monospace; margin: 0px 2px; padding: 0.15rem 0.3rem; border: 1px solid rgb(234, 234, 234); background-color: rgba(27, 31, 35, 0.05); border-radius: 0.3rem; text-align: left;&quot;&gt;galaxy&lt;/code&gt;&lt;span style=&quot;color: rgb(51, 51, 51); font-family: -apple-system, BlinkMacSystemFont, &amp;quot;Segoe UI&amp;quot;, Roboto, Oxygen, Ubuntu, Cantarell, &amp;quot;Fira Sans&amp;quot;, &amp;quot;Droid Sans&amp;quot;, &amp;quot;Helvetica Neue&amp;quot;, sans-serif; text-align: left; background-color: rgb(255, 255, 255);&quot;&gt;,&amp;nbsp;&lt;/span&gt;&lt;code style=&quot;box-sizing: border-box; font-family: source-code-pro, Menlo, Monaco, Consolas, &amp;quot;Courier New&amp;quot;, monospace; margin: 0px 2px; padding: 0.15rem 0.3rem; border: 1px solid rgb(234, 234, 234); background-color: rgba(27, 31, 35, 0.05); border-radius: 0.3rem; text-align: left;&quot;&gt;star&lt;/code&gt;&lt;span style=&quot;color: rgb(51, 51, 51); font-family: -apple-system, BlinkMacSystemFont, &amp;quot;Segoe UI&amp;quot;, Roboto, Oxygen, Ubuntu, Cantarell, &amp;quot;Fira Sans&amp;quot;, &amp;quot;Droid Sans&amp;quot;, &amp;quot;Helvetica Neue&amp;quot;, sans-serif; text-align: left; background-color: rgb(255, 255, 255);&quot;&gt;,&amp;nbsp;&lt;/span&gt;&lt;code style=&quot;box-sizing: border-box; font-family: source-code-pro, Menlo, Monaco, Consolas, &amp;quot;Courier New&amp;quot;, monospace; margin: 0px 2px; padding: 0.15rem 0.3rem; border: 1px solid rgb(234, 234, 234); background-color: rgba(27, 31, 35, 0.05); border-radius: 0.3rem; text-align: left;&quot;&gt;planet&lt;/code&gt;&lt;span style=&quot;color: rgb(51, 51, 51); font-family: -apple-system, BlinkMacSystemFont, &amp;quot;Segoe UI&amp;quot;, Roboto, Oxygen, Ubuntu, Cantarell, &amp;quot;Fira Sans&amp;quot;, &amp;quot;Droid Sans&amp;quot;, &amp;quot;Helvetica Neue&amp;quot;, sans-serif; text-align: left; background-color: rgb(255, 255, 255);&quot;&gt;, and&amp;nbsp;&lt;/span&gt;&lt;code style=&quot;box-sizing: border-box; font-family: source-code-pro, Menlo, Monaco, Consolas, &amp;quot;Courier New&amp;quot;, monospace; margin: 0px 2px; padding: 0.15rem 0.3rem; border: 1px solid rgb(234, 234, 234); background-color: rgba(27, 31, 35, 0.05); border-radius: 0.3rem; text-align: left;&quot;&gt;moon&lt;/code&gt;&lt;/u&gt;&lt;/i&gt;&lt;/b&gt;" style="text;html=1;align=center;verticalAlign=middle;resizable=0;points=[];autosize=1;strokeColor=none;fillColor=none;" vertex="1" parent="1">
          <mxGeometry x="-5" y="90" width="350" height="40" as="geometry" />
        </mxCell>
      </root>
    </mxGraphModel>
  </diagram>
</mxfile>
